<svg width="24" height="24" viewBox="0 0 24 24" fill="none" xmlns="http://www.w3.org/2000/svg">
<path d="M5.5 18V18.5H6H18H18.5V18V17.2C18.5 16.9288 18.4309 16.6712 18.2891 16.4393C18.1536 16.2175 17.9702 16.0392 17.7428 15.9129L17.7333 15.9076L17.7236 15.9028C16.7925 15.4372 15.8493 15.0863 14.8942 14.8519C13.939 14.6174 12.974 14.5 12 14.5C11.026 14.5 10.061 14.6174 9.10581 14.8519C8.15072 15.0863 7.20748 15.4372 6.27639 15.9028L6.26668 15.9076L6.25718 15.9129C6.0298 16.0392 5.84639 16.2175 5.71086 16.4393C5.56911 16.6712 5.5 16.9288 5.5 17.2V18ZM12 11.5C11.0337 11.5 10.2189 11.1618 9.52855 10.4714C8.83824 9.78113 8.5 8.96634 8.5 8C8.5 7.03366 8.83824 6.21887 9.52855 5.52855C10.2189 4.83824 11.0337 4.5 12 4.5C12.9663 4.5 13.7811 4.83824 14.4714 5.52855C15.1618 6.21887 15.5 7.03366 15.5 8C15.5 8.96634 15.1618 9.78113 14.4714 10.4714C13.7811 11.1618 12.9663 11.5 12 11.5ZM4.5 19.5V17.2C4.5 16.7241 4.62109 16.2941 4.86359 15.8991C5.10825 15.5007 5.42772 15.2027 5.82681 14.9956C6.82714 14.4957 7.84065 14.1222 8.86769 13.8735C9.89573 13.6245 10.9396 13.5 12 13.5C13.0604 13.5 14.1043 13.6245 15.1323 13.8735C16.1594 14.1222 17.1729 14.4957 18.1732 14.9956C18.5723 15.2027 18.8918 15.5007 19.1364 15.8991C19.3789 16.2941 19.5 16.7241 19.5 17.2V19.5H4.5ZM12 10.5C12.6837 10.5 13.2814 10.2507 13.7661 9.76605C14.2507 9.28137 14.5 8.68366 14.5 8C14.5 7.31634 14.2507 6.71863 13.7661 6.23395C13.2814 5.74926 12.6837 5.5 12 5.5C11.3163 5.5 10.7186 5.74926 10.2339 6.23395C9.74926 6.71863 9.5 7.31634 9.5 8C9.5 8.68366 9.74926 9.28137 10.2339 9.76605C10.7186 10.2507 11.3163 10.5 12 10.5Z" fill="#1D1B20" stroke="#29A653"/>
</svg>
