<svg width="24" height="24" viewBox="0 0 24 24" fill="none" xmlns="http://www.w3.org/2000/svg">
<rect width="24" height="24" fill="white"/>
<path d="M19.6 20.2929L13.6536 14.3464L13.3371 14.03L12.9877 14.3096C12.534 14.6725 12.0082 14.9632 11.4061 15.1794C10.8135 15.3921 10.1793 15.5 9.5 15.5C7.81284 15.5 6.40345 14.9213 5.24105 13.7589C4.07866 12.5966 3.5 11.1872 3.5 9.5C3.5 7.81284 4.07866 6.40345 5.24105 5.24105C6.40345 4.07866 7.81284 3.5 9.5 3.5C11.1872 3.5 12.5966 4.07866 13.7589 5.24105C14.9213 6.40345 15.5 7.81284 15.5 9.5C15.5 10.1793 15.3921 10.8135 15.1794 11.4061C14.9632 12.0082 14.6725 12.534 14.3096 12.9877L14.03 13.3371L14.3464 13.6536L20.2929 19.6L19.6 20.2929ZM9.5 14.5C10.8811 14.5 12.0712 14.0109 13.0411 13.0411C14.0109 12.0712 14.5 10.8811 14.5 9.5C14.5 8.11891 14.0109 6.92878 13.0411 5.95895C12.0712 4.98911 10.8811 4.5 9.5 4.5C8.11891 4.5 6.92878 4.98911 5.95895 5.95895C4.98911 6.92878 4.5 8.11891 4.5 9.5C4.5 10.8811 4.98911 12.0712 5.95895 13.0411C6.92878 14.0109 8.11891 14.5 9.5 14.5Z" fill="#32AD5C"/>
<path d="M19.6 20.2929L13.6536 14.3464L13.3371 14.03L12.9877 14.3096C12.534 14.6725 12.0082 14.9632 11.4061 15.1794C10.8135 15.3921 10.1793 15.5 9.5 15.5C7.81284 15.5 6.40345 14.9213 5.24105 13.7589C4.07866 12.5966 3.5 11.1872 3.5 9.5C3.5 7.81284 4.07866 6.40345 5.24105 5.24105C6.40345 4.07866 7.81284 3.5 9.5 3.5C11.1872 3.5 12.5966 4.07866 13.7589 5.24105C14.9213 6.40345 15.5 7.81284 15.5 9.5C15.5 10.1793 15.3921 10.8135 15.1794 11.4061C14.9632 12.0082 14.6725 12.534 14.3096 12.9877L14.03 13.3371L14.3464 13.6536L20.2929 19.6L19.6 20.2929ZM9.5 14.5C10.8811 14.5 12.0712 14.0109 13.0411 13.0411C14.0109 12.0712 14.5 10.8811 14.5 9.5C14.5 8.11891 14.0109 6.92878 13.0411 5.95895C12.0712 4.98911 10.8811 4.5 9.5 4.5C8.11891 4.5 6.92878 4.98911 5.95895 5.95895C4.98911 6.92878 4.5 8.11891 4.5 9.5C4.5 10.8811 4.98911 12.0712 5.95895 13.0411C6.92878 14.0109 8.11891 14.5 9.5 14.5Z" fill="black" fill-opacity="0.2"/>
<path d="M19.6 20.2929L13.6536 14.3464L13.3371 14.03L12.9877 14.3096C12.534 14.6725 12.0082 14.9632 11.4061 15.1794C10.8135 15.3921 10.1793 15.5 9.5 15.5C7.81284 15.5 6.40345 14.9213 5.24105 13.7589C4.07866 12.5966 3.5 11.1872 3.5 9.5C3.5 7.81284 4.07866 6.40345 5.24105 5.24105C6.40345 4.07866 7.81284 3.5 9.5 3.5C11.1872 3.5 12.5966 4.07866 13.7589 5.24105C14.9213 6.40345 15.5 7.81284 15.5 9.5C15.5 10.1793 15.3921 10.8135 15.1794 11.4061C14.9632 12.0082 14.6725 12.534 14.3096 12.9877L14.03 13.3371L14.3464 13.6536L20.2929 19.6L19.6 20.2929ZM9.5 14.5C10.8811 14.5 12.0712 14.0109 13.0411 13.0411C14.0109 12.0712 14.5 10.8811 14.5 9.5C14.5 8.11891 14.0109 6.92878 13.0411 5.95895C12.0712 4.98911 10.8811 4.5 9.5 4.5C8.11891 4.5 6.92878 4.98911 5.95895 5.95895C4.98911 6.92878 4.5 8.11891 4.5 9.5C4.5 10.8811 4.98911 12.0712 5.95895 13.0411C6.92878 14.0109 8.11891 14.5 9.5 14.5Z" stroke="#29A653"/>
</svg>
