<svg width="97" height="96" viewBox="0 0 97 96" fill="none" xmlns="http://www.w3.org/2000/svg">
<path d="M45.6266 72.5736C45.6266 95.3869 45.6266 95.2338 22.8133 95.2338C10.2139 95.2338 0 85.173 0 72.5736C0 59.9741 10.2139 49.7603 22.8133 49.7603C35.4128 49.7603 45.6266 59.9741 45.6266 72.5736Z" fill="url(#paint0_linear_137_1471)"/>
<path fill-rule="evenodd" clip-rule="evenodd" d="M45.6266 23.4258C45.6266 23.2235 45.6266 23.0193 45.6266 22.8133C45.6266 10.2139 35.4128 0 22.8133 0C10.2139 0 0 10.2139 0 22.8133C0 35.4128 10.2139 45.4735 22.8133 45.4735C22.8645 45.4735 22.9156 45.4735 22.9666 45.4735V45.4736H45.6268V23.4258H45.6266Z" fill="url(#paint1_linear_137_1471)"/>
<circle cx="73.1864" cy="23.8851" r="22.9664" fill="url(#paint2_linear_137_1471)"/>
<path fill-rule="evenodd" clip-rule="evenodd" d="M73.0331 50.5269C76.783 50.5269 80.3216 51.4316 83.4425 53.0347L68.7482 67.7289C67.3412 68.9364 66.4499 70.7277 66.4499 72.7272C66.4499 76.3632 69.3975 79.3109 73.0336 79.3109C75.1133 79.3109 76.9677 78.3466 78.1742 76.8408L92.8989 62.1161C94.7753 65.4301 95.8464 69.26 95.8464 73.3402C95.8464 73.9157 95.8464 74.4765 95.8461 75.0232V96.0007H73.1858V96.0004L73.0331 96.0004C60.4337 96.0004 50.2198 85.9396 50.2198 73.3402C50.2198 60.7407 60.4337 50.5269 73.0331 50.5269Z" fill="url(#paint3_linear_137_1471)"/>
<defs>
<linearGradient id="paint0_linear_137_1471" x1="5.97127" y1="57.5688" x2="31.9999" y2="94.7744" gradientUnits="userSpaceOnUse">
<stop stop-color="#96D34A"/>
<stop offset="1" stop-color="#197A3A"/>
</linearGradient>
<linearGradient id="paint1_linear_137_1471" x1="6.12438" y1="8.42102" x2="36.4401" y2="45.6266" gradientUnits="userSpaceOnUse">
<stop stop-color="#96D34A"/>
<stop offset="1" stop-color="#197A3A"/>
</linearGradient>
<linearGradient id="paint2_linear_137_1471" x1="56.6506" y1="9.33973" x2="88.0381" y2="41.7989" gradientUnits="userSpaceOnUse">
<stop stop-color="#96D34A"/>
<stop offset="1" stop-color="#197A3A"/>
</linearGradient>
<linearGradient id="paint3_linear_137_1471" x1="56.3442" y1="58.9479" x2="86.6601" y2="96.1536" gradientUnits="userSpaceOnUse">
<stop stop-color="#96D34A"/>
<stop offset="1" stop-color="#197A3A"/>
</linearGradient>
</defs>
</svg>
