<svg width="145" height="40" viewBox="0 0 145 40" fill="none" xmlns="http://www.w3.org/2000/svg">
<path d="M141.378 24.1786C141.378 17.3707 136.764 13.2476 131.058 13.2476C125.352 13.2476 120.737 17.8022 120.737 24.1786C120.737 30.5551 125.352 35.1096 131.058 35.1096C136.764 35.1096 141.378 30.5551 141.378 24.1786ZM141.428 10.9943H145V37.363H141.428V32.6646C139.344 36.0685 135.126 38.0821 131.058 38.0821C123.168 38.0821 117.165 32.329 117.165 24.1786C117.165 16.0283 123.168 10.2751 131.058 10.2751C135.424 10.2751 139.294 12.1929 141.428 15.2612V10.9943Z" fill="#50AD45"/>
<path d="M99.4215 37.3628L87.5132 10.9941H91.3834L99.4711 29.4522L100.563 32.4247L101.704 29.4522L109.792 10.9941H113.662L101.754 37.3628H99.4215Z" fill="#50AD45"/>
<path d="M79.9542 24.1785C79.9542 17.8021 75.3397 13.2955 69.8817 13.2955C64.4238 13.2955 59.8093 17.8021 59.8093 24.1785C59.8093 30.555 64.4238 35.1096 69.8817 35.1096C75.3397 35.1096 79.9542 30.555 79.9542 24.1785ZM56.2368 24.1785C56.2368 16.0282 62.2406 10.323 69.8817 10.323C77.5229 10.323 83.5267 16.0282 83.5267 24.1785C83.5267 32.3289 77.5229 38.082 69.8817 38.082C62.2406 38.082 56.2368 32.3289 56.2368 24.1785Z" fill="#50AD45"/>
<path d="M44.4932 0.446777H48.0657V37.3629H44.4932V0.446777Z" fill="#50AD45"/>
<path d="M31.082 40V35.3975H35.8453V40H31.082Z" fill="#50AD45"/>
<path d="M24.8586 16.0282L21.9807 17.8021C20.1449 14.9735 17.0189 13.2955 13.6449 13.2955C8.18695 13.2955 3.57249 17.8021 3.57249 24.1785C3.57249 30.555 8.18695 35.1096 13.6449 35.1096C17.4655 35.1096 20.9388 33.0001 22.7746 29.4043L25.5532 31.2741C23.2212 35.4931 18.8052 38.082 13.6449 38.082C6.00377 38.082 0 32.3289 0 24.1785C0 16.0282 6.00377 10.323 13.6449 10.323C18.3586 10.323 22.4273 12.4804 24.8586 16.0282Z" fill="#50AD45"/>
</svg>
