<svg width="44" height="44" viewBox="0 0 44 44" fill="none" xmlns="http://www.w3.org/2000/svg">
<circle cx="22" cy="22" r="22" fill="#CAD1FF"/>
<mask id="mask0_547_5668" style="mask-type:alpha" maskUnits="userSpaceOnUse" x="0" y="0" width="44" height="44">
<circle cx="22" cy="22" r="22" fill="#D9D9D9"/>
</mask>
<g mask="url(#mask0_547_5668)">
<path d="M9.32488 18.1077C9.61805 11.4931 15.066 6.28125 21.6871 6.28125C28.3083 6.28125 33.7562 11.4931 34.0494 18.1077L35.2014 44.1003H8.17285L9.32488 18.1077Z" fill="#414654"/>
<rect x="20.106" y="27.2344" width="3.77143" height="8.38095" fill="#FFE2D3"/>
<path d="M20.106 27.2344H23.8774V31.0058L20.106 32.2629V27.2344Z" fill="#F9BE9F"/>
<ellipse cx="22.0032" cy="19.691" rx="11.1048" ry="10.4762" fill="#FFE2D3"/>
<path d="M25.7956 8.64159C19.9708 15.1193 15.6438 16.4706 10.5529 18.5548C11.4474 14.5482 15.5291 4.15016 25.7956 8.64159Z" fill="#414654"/>
<path d="M24.088 8.64062C25.6595 14.9263 30.1118 17.0216 32.9929 18.593C33.8007 15.6485 30.7193 9.42582 24.088 8.64062Z" fill="#414654"/>
<ellipse cx="33.4631" cy="22.522" rx="3.5619" ry="3.0381" transform="rotate(-30 33.4631 22.522)" fill="#FFE2D3"/>
<ellipse cx="3.5619" cy="3.0381" rx="3.5619" ry="3.0381" transform="matrix(-0.866025 -0.5 -0.5 0.866025 15.4897 21.6719)" fill="#FFE2D3"/>
<path fill-rule="evenodd" clip-rule="evenodd" d="M9.84022 24.3216C8.67583 23.6493 8.19673 22.2992 8.77013 21.3061C9.34354 20.3129 10.7523 20.0528 11.9167 20.725C12.2867 20.9386 12.5875 21.2207 12.8073 21.538C12.8827 21.6467 12.8244 21.7925 12.6982 21.8324L11.9096 22.0814C11.7444 22.1336 11.7103 22.3524 11.8519 22.4524L13.025 23.2804C13.0989 23.3326 13.1321 23.4268 13.0985 23.5108C13.0671 23.5891 13.0299 23.6658 12.9868 23.7405C12.4134 24.7337 11.0046 24.9938 9.84022 24.3216Z" fill="#F9BE9F"/>
<path fill-rule="evenodd" clip-rule="evenodd" d="M34.4796 24.3216C35.644 23.6493 36.1231 22.2992 35.5497 21.3061C34.9763 20.3129 33.5675 20.0528 32.4031 20.725C32.0331 20.9386 31.7323 21.2207 31.5125 21.538C31.4372 21.6467 31.4954 21.7925 31.6216 21.8324L32.4102 22.0814C32.5754 22.1336 32.6095 22.3524 32.4679 22.4524L31.2948 23.2804C31.2209 23.3326 31.1877 23.4268 31.2213 23.5108C31.2527 23.5891 31.2899 23.6658 31.333 23.7405C31.9064 24.7337 33.3152 24.9938 34.4796 24.3216Z" fill="#F9BE9F"/>
<path d="M23.0484 24.0938C23.0484 24.6723 22.5793 25.1414 22.0007 25.1414C21.4222 25.1414 20.9531 24.6723 20.9531 24.0938" stroke="#2D333F" stroke-width="0.419048" stroke-linecap="round"/>
<path d="M14.4585 17.5977L15.4014 18.5405" stroke="#2D333F" stroke-width="0.419048" stroke-linecap="round"/>
<path d="M29.436 17.5977L28.4932 18.5405" stroke="#2D333F" stroke-width="0.419048" stroke-linecap="round"/>
<circle cx="25.9739" cy="19.6897" r="3.14286" fill="white"/>
<circle cx="25.9739" cy="19.6897" r="3.14286" fill="white"/>
<circle cx="25.8767" cy="19.7966" r="1.78095" fill="#414654"/>
<circle cx="18.0188" cy="19.6897" r="3.14286" fill="white"/>
<circle cx="18.0188" cy="19.6897" r="3.14286" fill="white"/>
<circle cx="18.1179" cy="19.7966" r="1.78095" fill="#414654"/>
<path d="M10.4688 43.9965C10.4688 37.632 15.6281 32.4727 21.9926 32.4727C28.357 32.4727 33.5164 37.632 33.5164 43.9965V45.8403H10.4688V43.9965Z" fill="#EDEFFF"/>
<circle cx="21.9987" cy="37.0622" r="0.628571" fill="#4C61F0"/>
<circle cx="21.9987" cy="39.5778" r="0.628571" fill="#4C61F0"/>
<path d="M24.5519 30.9844L21.8337 32.2415L23.4193 36.0129L26.817 33.4987L24.5519 30.9844Z" fill="#4C61F0"/>
<path d="M19.0233 30.9844L21.7415 32.2415L20.1559 36.0129L16.7582 33.4987L19.0233 30.9844Z" fill="#4C61F0"/>
<circle cx="15.1828" cy="24.091" r="1.57143" fill="#FFD0D0"/>
<circle cx="28.8102" cy="24.091" r="1.57143" fill="#FFD0D0"/>
</g>
</svg>
