<svg width="15" height="15" viewBox="0 0 15 15" fill="none" xmlns="http://www.w3.org/2000/svg">
<g id="Yes">
<g id="Yes_2">
<path fill-rule="evenodd" clip-rule="evenodd" d="M11.0905 5.371C11.3104 5.60154 11.3019 5.96673 11.0713 6.18667L6.83814 10.2251C6.61509 10.4379 6.26418 10.4378 6.04132 10.2248L3.92834 8.20556C3.69798 7.98542 3.6897 7.62023 3.90983 7.38987C4.12996 7.15952 4.49516 7.15123 4.72551 7.37137L6.44024 9.01002L8.35754 7.18091L10.2748 5.3518C10.5054 5.13186 10.8706 5.14046 11.0905 5.371Z" fill="#8C8C8C"/>
<path fill-rule="evenodd" clip-rule="evenodd" d="M7.5 1.15385C3.99512 1.15385 1.15385 3.99512 1.15385 7.5C1.15385 11.0049 3.99512 13.8462 7.5 13.8462C11.0049 13.8462 13.8462 11.0049 13.8462 7.5C13.8462 3.99512 11.0049 1.15385 7.5 1.15385ZM0 7.5C0 3.35786 3.35786 0 7.5 0C11.6421 0 15 3.35786 15 7.5C15 11.6421 11.6421 15 7.5 15C3.35786 15 0 11.6421 0 7.5Z" fill="#8C8C8C"/>
</g>
</g>
</svg>
